Coordinates
version=1
nRows=9
nColumns=42
inDegrees=yes

Units are S.I. units (second, meters, Newtons, ...)
If the header above contains a line with 'inDegrees', this indicates whether rotational values are in degrees (yes) or radians (no).

endheader
time	pelvis_tilt	pelvis_list	pelvis_rotation	pelvis_tx	pelvis_ty	pelvis_tz	hip_flexion_r	hip_adduction_r	hip_rotation_r	knee_angle_r	knee_adduction_r	knee_angle_r_beta	ankle_angle_r	subtalar_angle_r	mtp_angle_r	hip_flexion_l	hip_adduction_l	hip_rotation_l	knee_angle_l	knee_adduction_l	knee_angle_l_beta	ankle_angle_l	subtalar_angle_l	mtp_angle_l	lumbar_extension	lumbar_bending	lumbar_rotation	arm_flex_r	arm_add_r	arm_rot_r	elbow_flex_r	pro_sup_r	wrist_flex_r	wrist_dev_r	arm_flex_l	arm_add_l	arm_rot_l	elbow_flex_l	pro_sup_l	wrist_flex_l	wrist_dev_l
      0.94000000	     21.57142717	      1.24665739	     -0.42784464	      0.53607001	      0.99057862	     -0.04060435	      8.17043596	     -2.44186651	    -22.31394124	     27.35036317	     -9.34922142	      0.47735389	     10.00904570	     20.39728275	     -7.64082277	    -26.38208360	      4.82250449	    -24.20469805	     16.19129805	     -6.25286977	      0.28259146	     20.86423669	     33.72954541	     -7.64082277	    -43.21383803	     -2.11362413	      2.45320264	     -1.12698686	    -15.51602993	     -9.33868733	     59.10317494	     90.00000001	      0.00000000	      0.00000000	     15.98799478	    -23.86630583	     10.63505071	     66.43433594	     90.00000001	      0.00000000	      0.00000000
      0.95000000	     21.49082328	      1.55993842	     -0.04128754	      0.54934480	      0.98797996	     -0.04069015	      8.78727432	     -2.96985820	    -25.00748258	     25.05570326	     -9.37685090	      0.43730452	      9.74277101	     24.16730560	     -7.63244065	    -27.17539343	      4.87604357	    -23.91395762	     16.25669413	     -6.19432885	      0.28373284	     21.37716860	     34.04378592	     -7.63244065	    -43.12181818	     -2.19816867	      2.16514300	     -1.45474112	    -15.34025525	     -9.65096694	     59.09194496	     90.00000001	      0.00000000	      0.00000000	     16.78510736	    -24.06745831	     11.45483668	     66.70241106	     90.00000001	      0.00000000	      0.00000000
      0.96000000	     21.35188804	      1.88282135	      0.36151857	      0.56268059	      0.98534757	     -0.04078278	      9.39157226	     -3.50303203	    -27.42060241	     23.05595601	     -9.20225462	      0.40240234	      9.21579465	     27.27459542	     -7.62399928	    -27.84598927	      4.90365106	    -23.71357674	     16.42789034	     -6.19574894	      0.28672078	     21.90085775	     34.27719555	     -7.62399928	    -42.98175122	     -2.27674555	      1.87479234	     -1.75601269	    -15.16259545	     -9.93973920	     59.00456586	     90.00000001	      0.00000000	      0.00000000	     17.53225168	    -24.20843772	     12.20258430	     66.88395737	     90.00000001	      0.00000000	      0.00000000
      0.97000000	     21.15292867	      2.19041295	      0.79013276	      0.57612932	      0.98267970	     -0.04091317	      9.96664393	     -3.99398739	    -29.43263113	     21.36748770	     -8.86286453	      0.37293301	      8.63655101	     29.59712498	     -7.61647188	    -28.40419417	      4.88191797	    -23.52691619	     16.71513897	     -6.23095183	      0.29173421	     22.37944089	     34.55413173	     -7.61647188	    -42.77218648	     -2.31203131	      1.57094071	     -2.02856188	    -14.99588816	    -10.19544870	     58.87920653	     90.00000001	      0.00000000	      0.00000000	     18.22482788	    -24.28430879	     12.88195937	     67.03125939	     90.00000001	      0.00000000	      0.00000000
      0.98000000	     20.88575747	      2.46714586	      1.22900704	      0.58966551	      0.98001290	     -0.04103750	     10.51529462	     -4.37494689	    -30.80735501	     19.96977877	     -8.41256825	      0.34853839	      7.88093906	     30.71129452	     -7.61286847	    -28.83210339	      4.80115404	    -23.38325579	     17.12438519	     -6.30845690	      0.29887690	     22.86398914	     34.80543856	     -7.61286847	    -42.49200791	     -2.30631019	      1.25311506	     -2.25835162	    -14.86036102	    -10.33756183	     58.69680216	     90.00000001	      0.00000000	      0.00000000	     18.77442407	    -24.26185043	     13.30770583	     67.15492937	     90.00000001	      0.00000000	      0.00000000
      0.99000000	     20.48534019	      2.83220497	      1.54927528	      0.60335215	      0.97723206	     -0.04116884	     11.19756010	     -4.82120242	    -31.28980044	     19.11143874	     -7.84919014	      0.33355753	      7.85739131	     30.49121990	     -7.61188572	    -29.11475663	      4.88740550	    -23.25320204	     17.52083349	     -6.39678066	      0.30579623	     22.90070365	     34.67808634	     -7.61188572	    -42.06385532	     -2.43728062	      0.93467775	     -2.51324854	    -14.79021749	    -10.33691028	     58.59738021	     90.00000001	      0.00000000	      0.00000000	     19.12932279	    -24.09240477	     13.36944020	     67.32877007	     90.00000001	      0.00000000	      0.00000000
      1.00000000	     20.16917650	      3.02232234	      2.18284956	      0.61729278	      0.97465358	     -0.04134042	     11.74756485	     -5.13325508	    -33.04625050	     18.49164748	     -7.81058038	      0.32274013	      7.24861226	     32.44657595	     -7.60565168	    -29.32803699	      4.55861528	    -23.12577561	     18.29171311	     -6.62671493	      0.31925062	     23.42955428	     35.43711563	     -7.60565168	    -41.70525200	     -2.25011678	      0.62074385	     -2.68879714	    -14.47943475	    -10.81321013	     58.17242290	     90.00000001	      0.00000000	      0.00000000	     19.69487720	    -24.20324811	     14.37888076	     67.28493022	     90.00000001	      0.00000000	      0.00000000
      1.01000000	     19.74429678	      3.27686363	      2.61664138	      0.63138130	      0.97206642	     -0.04143148	     12.35853634	     -5.37540819	    -33.22760603	     18.28967566	     -7.60581321	      0.31921506	      7.13787585	     32.14586411	     -7.60478834	    -29.46717345	      4.44372708	    -22.86394273	     18.97193534	     -6.81730272	      0.33112274	     23.40464941	     35.37576430	     -7.60478834	    -41.22382426	     -2.23068995	      0.31843065	     -2.97224262	    -14.38615375	    -10.81651607	     58.02804203	     90.00000001	      0.00000000	      0.00000000	     19.87454147	    -24.00143579	     14.43922860	     67.40676312	     90.00000001	      0.00000000	      0.00000000
      1.02000000	     19.34021658	      3.42365483	      3.16047631	      0.64573759	      0.96962841	     -0.04156842	     12.94779471	     -5.53699545	    -33.69444788	     18.51866147	     -7.65689544	      0.32321162	      6.85232334	     31.75558261	     -7.60313936	    -29.56133370	      4.11785107	    -22.56824151	     19.80702034	     -7.01457702	      0.34569772	     23.44843574	     35.58549848	     -7.60313936	    -40.73878426	     -2.01456633	      0.00647257	     -3.11001388	    -14.23103931	    -10.92711272	     57.70274942	     90.00000001	      0.00000000	      0.00000000	     20.00763780	    -23.87250956	     14.60319818	     67.46890498	     90.00000001	      0.00000000	      0.00000000
